<?xml version="1.0" standalone="no"?>
<!DOCTYPE svg PUBLIC "-//W3C//DTD SVG 20010904//EN"
 "http://www.w3.org/TR/2001/REC-SVG-20010904/DTD/svg10.dtd">
<svg version="1.0" xmlns="http://www.w3.org/2000/svg"
 width="512.000000pt" height="512.000000pt" viewBox="0 0 512.000000 512.000000"
 preserveAspectRatio="xMidYMid meet">
<metadata>
Created by potrace 1.14, written by Peter Selinger 2001-2017
</metadata>
<g transform="translate(0.000000,512.000000) scale(0.100000,-0.100000)"
fill="#000000" stroke="none">
<path d="M1345 5106 c-81 -21 -144 -56 -212 -119 -84 -79 -130 -171 -143 -289
-6 -48 -10 -603 -10 -1335 l0 -1253 -77 0 c-95 0 -160 -27 -215 -88 -50 -55
-70 -105 -71 -177 0 -61 26 -139 60 -177 15 -17 15 -19 0 -36 -33 -36 -60
-116 -60 -174 0 -56 -1 -58 -28 -58 -15 0 -58 -9 -95 -21 -232 -71 -404 -251
-464 -485 -24 -94 -26 -241 -4 -334 58 -248 272 -453 526 -504 66 -14 185 -16
806 -16 816 0 793 -2 874 70 105 92 125 249 44 358 l-24 33 34 56 c19 31 34
65 34 74 0 40 11 49 60 49 l47 0 6 -93 c14 -222 141 -416 338 -515 144 -73
128 -72 1005 -72 745 0 784 1 858 20 226 57 405 235 461 455 13 51 15 221 15
1248 0 1308 3 1242 -61 1371 -79 159 -205 268 -373 323 -76 24 -96 26 -318 31
l-238 4 0 382 c0 525 1 519 -218 752 -75 80 -194 207 -265 282 -135 145 -198
195 -287 227 -53 19 -86 20 -1005 22 -737 1 -961 -1 -1000 -11z m1945 -478 c0
-327 0 -332 22 -355 l21 -23 307 0 308 0 6 -31 c3 -17 6 -197 6 -400 l0 -368
-507 -3 c-458 -4 -513 -6 -563 -22 -228 -75 -385 -236 -440 -452 -19 -74 -20
-114 -20 -1106 l0 -1028 -71 0 c-60 0 -73 3 -88 22 -17 20 -17 23 15 76 18 30
36 75 40 99 9 61 -11 143 -45 191 l-29 39 29 42 c61 92 61 214 -2 301 l-30 41
25 30 c35 41 60 131 52 186 -9 66 -39 126 -85 171 -74 72 -75 72 -613 72
l-478 0 2 1313 3 1312 23 46 c25 52 82 113 127 137 79 41 74 41 1048 41 l937
1 0 -332z m539 -200 c13 -17 3 -18 -183 -18 l-196 0 0 209 0 210 183 -192
c100 -106 188 -200 196 -209z m800 -1157 c153 -47 275 -177 317 -336 11 -40
14 -273 14 -1210 0 -1013 -2 -1168 -15 -1220 -48 -182 -208 -320 -400 -346
-52 -6 -343 -9 -830 -7 -747 4 -750 4 -809 26 -170 64 -287 201 -316 372 -8
46 -10 404 -8 1215 l3 1150 24 60 c61 154 187 271 328 304 21 5 396 9 835 10
755 1 799 0 857 -18z m-2498 -1359 c40 -45 40 -99 0 -144 l-29 -33 -614 -3
c-651 -3 -650 -3 -688 46 -39 49 -15 138 44 162 11 5 299 8 639 7 l619 -2 29
-33z m-37 -356 c71 -30 89 -110 37 -168 l-29 -33 -424 -3 c-352 -2 -430 0
-463 12 -88 32 -126 39 -275 45 l-155 6 -3 38 c-4 47 18 84 61 102 47 21 1202
22 1251 1z m-974 -326 c163 -47 304 -191 354 -359 18 -62 21 -202 5 -271 -30
-133 -139 -276 -258 -339 -86 -45 -150 -61 -254 -61 l-88 0 -77 77 c-132 133
-186 264 -186 448 1 132 29 233 94 332 56 85 171 191 213 195 56 5 130 -3 197
-22z m1011 -79 c47 -48 37 -130 -21 -164 -24 -15 -62 -17 -264 -17 l-236 0
-29 58 c-16 32 -46 80 -65 105 l-36 47 311 0 311 0 29 -29z"/>
<path d="M1585 4065 c-14 -13 -25 -36 -25 -50 0 -14 11 -37 25 -50 l24 -25
700 0 700 0 20 26 c28 35 26 69 -4 99 l-24 25 -696 0 -696 0 -24 -25z"/>
<path d="M3225 4065 c-30 -30 -32 -64 -4 -99 20 -26 22 -26 148 -26 120 0 129
1 149 23 29 31 28 72 -3 102 -23 24 -30 25 -145 25 -115 0 -122 -1 -145 -25z"/>
<path d="M1610 3708 c-13 -7 -31 -26 -40 -41 -13 -24 -13 -30 0 -54 27 -48 52
-54 203 -51 132 3 140 4 158 27 10 13 19 36 19 51 0 15 -9 38 -19 51 -18 23
-26 24 -158 27 -98 2 -145 -1 -163 -10z"/>
<path d="M2150 3707 c-13 -7 -31 -25 -40 -40 -13 -24 -13 -30 0 -54 30 -54 16
-53 713 -53 560 0 652 2 677 15 53 27 53 103 0 130 -25 13 -117 15 -677 15
-498 0 -654 -3 -673 -13z"/>
<path d="M1882 3440 c-26 -11 -42 -47 -42 -95 0 -30 -4 -35 -37 -46 -50 -16
-126 -94 -141 -145 -34 -116 2 -230 92 -289 28 -19 83 -46 121 -60 147 -56
185 -93 185 -184 0 -100 -47 -143 -155 -143 -70 0 -93 9 -152 63 -49 45 -60
47 -97 18 -67 -53 1 -160 124 -196 60 -18 60 -18 60 -56 0 -46 36 -87 75 -87
40 0 75 41 75 89 0 35 3 40 29 46 59 13 118 63 151 127 25 52 30 73 30 136 0
97 -15 143 -63 198 -41 47 -106 84 -215 124 -35 13 -80 38 -99 56 -34 32 -35
36 -31 86 4 42 11 56 34 75 53 42 150 42 245 1 46 -19 50 -19 74 -4 13 9 28
28 31 42 14 55 -29 92 -133 114 -50 11 -51 11 -56 57 -2 25 -11 51 -18 58 -20
19 -60 26 -87 15z"/>
<path d="M3005 3121 c-75 -19 -145 -77 -176 -146 -16 -34 -19 -68 -19 -241 0
-195 1 -201 26 -252 14 -29 42 -65 62 -82 62 -51 107 -60 294 -60 166 0 169 0
193 25 30 29 33 74 6 106 -17 21 -30 24 -101 27 -77 4 -82 5 -91 31 -14 36
-12 384 3 416 l11 25 643 0 c477 0 650 -3 669 -12 48 -22 55 -52 55 -233 l0
-167 -29 -29 -29 -29 -436 0 c-302 0 -443 -3 -460 -11 -35 -16 -52 -61 -37
-98 7 -15 22 -34 34 -40 16 -9 143 -11 477 -9 448 3 456 3 496 25 57 30 111
97 129 157 21 69 21 353 0 422 -19 64 -65 118 -129 152 l-51 27 -755 2 c-415
1 -768 -2 -785 -6z"/>
<path d="M2890 2189 c-71 -42 -75 -53 -78 -259 -3 -180 -2 -186 20 -220 46
-67 72 -75 263 -75 152 0 174 2 204 20 71 42 76 56 79 258 3 177 3 183 -20
217 -13 19 -39 45 -57 57 -32 22 -43 23 -205 23 -154 0 -174 -2 -206 -21z"/>
<path d="M3590 2203 c-38 -15 -74 -49 -91 -87 -15 -34 -19 -66 -19 -186 0
-166 7 -201 51 -246 45 -46 104 -57 275 -53 163 5 197 19 234 94 20 41 21 57
18 214 -3 185 -7 197 -72 245 -25 19 -43 21 -204 23 -97 1 -184 -1 -192 -4z"/>
<path d="M4249 2187 c-18 -12 -44 -38 -56 -56 -22 -32 -23 -44 -23 -203 0
-193 10 -228 77 -269 35 -22 51 -24 184 -27 169 -4 219 6 265 52 46 46 56 96
52 265 -3 133 -5 149 -27 184 -41 67 -76 77 -269 77 -159 0 -171 -1 -203 -23z
m341 -262 l0 -135 -129 0 -128 0 -7 77 c-8 98 -8 178 1 186 3 4 64 7 135 7
l128 0 0 -135z"/>
<path d="M2925 1533 c-32 -8 -84 -51 -101 -84 -12 -25 -15 -63 -12 -214 l3
-184 35 -36 c49 -50 82 -57 267 -53 179 3 193 8 241 78 21 31 22 43 22 210 0
167 -1 179 -23 211 -12 19 -42 44 -67 57 -40 20 -57 22 -195 21 -82 -1 -159
-4 -170 -6z"/>
<path d="M3585 1526 c-48 -21 -93 -79 -100 -130 -4 -24 -5 -106 -3 -182 4
-163 17 -197 93 -234 41 -20 57 -21 213 -18 165 3 169 4 204 30 61 46 68 75
68 260 0 150 -2 166 -23 203 -14 26 -37 48 -67 63 -40 20 -58 22 -200 22 -105
-1 -165 -5 -185 -14z"/>
<path d="M4309 1526 c-57 -20 -96 -53 -118 -99 -20 -42 -21 -58 -21 -484 0
-302 4 -451 11 -474 19 -56 59 -100 113 -125 43 -20 66 -24 156 -24 58 0 122
5 143 11 47 13 102 60 130 113 21 40 22 51 25 459 4 489 1 508 -63 572 -25 25
-59 48 -81 54 -54 15 -251 13 -295 -3z m269 -158 c9 -9 12 -118 12 -428 0
-360 -2 -419 -16 -438 -14 -20 -23 -22 -113 -22 -68 0 -103 4 -117 14 -18 14
-19 32 -22 429 -3 293 0 421 8 436 10 19 19 21 123 21 75 0 117 -4 125 -12z"/>
<path d="M2900 878 c-77 -39 -90 -70 -92 -222 -4 -243 3 -270 82 -315 38 -21
48 -22 214 -19 194 3 205 7 254 79 22 33 23 40 20 216 -3 207 -8 219 -88 261
-40 20 -58 22 -195 22 -136 0 -155 -2 -195 -22z"/>
<path d="M3594 889 c-18 -5 -48 -27 -67 -48 -44 -49 -50 -84 -45 -267 3 -125
5 -143 27 -177 43 -69 77 -79 276 -75 190 3 201 6 249 72 19 25 21 44 24 204
2 168 1 179 -20 216 -14 24 -40 48 -67 63 -41 21 -55 23 -195 22 -83 0 -165
-5 -182 -10z"/>
<path d="M925 1115 c-14 -13 -25 -33 -25 -43 0 -11 -16 -30 -38 -45 -51 -33
-76 -87 -76 -159 1 -83 33 -127 121 -168 123 -56 118 -52 118 -95 0 -40 0 -40
-43 -43 -36 -3 -49 2 -78 27 -43 39 -68 39 -105 2 -31 -31 -36 -62 -16 -98 14
-26 75 -73 94 -73 7 0 19 -15 27 -34 16 -38 42 -56 81 -56 31 0 75 41 75 70 0
11 7 20 15 20 8 0 32 17 54 38 47 44 66 103 58 181 -9 86 -41 123 -147 174
-89 41 -117 70 -89 88 22 14 69 11 116 -7 40 -15 44 -15 68 0 30 20 48 60 40
87 -8 25 -62 69 -86 69 -12 0 -24 12 -33 34 -25 60 -88 75 -131 31z"/>
</g>
</svg>
